<svg width="76" height="55" viewBox="0 0 76 55" fill="none" xmlns="http://www.w3.org/2000/svg">
<g clip-path="url(#clip0_33049_96)">
<path d="M77.2782 26.5031V32.0719C77.2782 38.0188 76.5183 43.9656 76.5183 43.9656C76.5183 43.9656 75.8273 49.0187 73.6164 51.2531C70.7837 54.175 67.6399 54.2094 66.189 54.3812C55.8599 55.1375 40.3491 55.1375 40.3491 55.1375C40.3491 55.1375 21.1763 54.9656 15.2691 54.4156C13.6109 54.1063 9.94913 54.175 7.1164 51.2531C4.90549 49.0187 4.18012 43.9656 4.18012 43.9656C4.18012 43.9656 3.45459 38.0188 3.45459 32.0719V26.5031C3.45459 20.5562 4.18012 14.575 4.18012 14.575C4.18012 14.575 4.90549 9.52187 7.1164 7.2875C9.94913 4.36562 13.0928 4.36563 14.5092 4.19375C24.8383 3.4375 40.3491 3.4375 40.3491 3.4375H40.3837C40.3837 3.4375 55.8599 3.4375 66.189 4.19375C67.6399 4.36563 70.7837 4.36562 73.6164 7.2875C75.8273 9.52187 76.5183 14.575 76.5183 14.575C76.5183 14.575 77.2782 20.5562 77.2782 26.5031ZM55.4109 29.3219L33.5438 19.7656V38.8094L55.4109 29.3219Z" fill="#F80909"/>
</g>
<defs>
<clipPath id="clip0_33049_96">
<rect width="76" height="55" fill="white"/>
</clipPath>
</defs>
</svg>
